<svg viewBox="0 0 24 24" fill="none" xmlns="http://www.w3.org/2000/svg">
<path d="M8.56351 8.61856C8.6638 9.02045 9.07091 9.26494 9.47279 9.16464C9.87468 9.06434 10.1192 8.65724 10.0189 8.25535L8.56351 8.61856ZM8.88785 6.82082L9.61553 6.63921L8.88785 6.82082ZM14.8439 6.82082L14.1163 6.63921V6.63921L14.8439 6.82082ZM13.8873 3.76083L13.393 4.32484L13.8873 3.76083ZM9.84449 3.76083L9.35012 3.19682V3.19682L9.84449 3.76083ZM5.56755 19.2665L4.8674 19.5354H4.8674L5.56755 19.2665ZM7.7565 8.28463L7.41477 7.617L7.31093 7.67015L7.22813 7.75234L7.7565 8.28463ZM18.4325 19.2665L19.1326 19.5354H19.1326L18.4325 19.2665ZM16.2435 8.28463L16.7719 7.75234L16.6891 7.67015L16.5852 7.617L16.2435 8.28463ZM11.8659 3L11.8659 3.75L11.8659 3ZM13.7129 8.25535C13.6126 8.65724 13.8571 9.06434 14.259 9.16464C14.6609 9.26494 15.068 9.02045 15.1683 8.61856L13.7129 8.25535ZM10.0189 8.25535L9.61553 6.63921L8.16017 7.00242L8.56351 8.61856L10.0189 8.25535ZM13.393 4.32484C14.048 4.89897 14.3276 5.79253 14.1163 6.63921L15.5716 7.00242C15.9189 5.61111 15.4598 4.14178 14.3817 3.19682L13.393 4.32484ZM9.61553 6.63921C9.40423 5.79253 9.68384 4.89897 10.3388 4.32484L9.35012 3.19682C8.27204 4.14178 7.81294 5.61111 8.16017 7.00242L9.61553 6.63921ZM6.2677 18.9976C5.70351 17.5285 5.59907 15.5709 5.96106 13.6536C6.32325 11.7351 7.13251 9.96077 8.28486 8.81691L7.22813 7.75234C5.79786 9.17207 4.8867 11.2587 4.4871 13.3753C4.08729 15.493 4.17969 17.7446 4.8674 19.5354L6.2677 18.9976ZM8.09823 8.95225C9.11324 8.43271 10.4015 7.85471 12.1143 7.89986L12.1538 6.40038C10.0587 6.34516 8.49608 7.06353 7.41477 7.617L8.09823 8.95225ZM12.1417 20.25C10.6311 20.2346 9.15075 20.0686 8.01799 19.7882C7.44936 19.6474 6.99767 19.4849 6.68083 19.3156C6.52354 19.2316 6.41606 19.1546 6.34739 19.0911C6.27846 19.0274 6.26627 18.9939 6.2677 18.9976L4.8674 19.5354C5.06661 20.0541 5.53145 20.4022 5.97398 20.6386C6.44099 20.8881 7.02331 21.0872 7.65753 21.2442C8.93048 21.5594 10.5312 21.7337 12.1264 21.75L12.1417 20.25ZM19.1326 19.5354C19.8203 17.7446 19.9127 15.493 19.5129 13.3753C19.1133 11.2587 18.2021 9.17207 16.7719 7.75234L15.7151 8.81691C16.8675 9.96077 17.6767 11.7351 18.0389 13.6536C18.4009 15.5709 18.2965 17.5285 17.7323 18.9976L19.1326 19.5354ZM16.5852 7.617C15.5039 7.06353 13.9413 6.34516 11.8462 6.40038L11.8857 7.89986C13.5985 7.85471 14.8868 8.43271 15.9018 8.95225L16.5852 7.617ZM11.8736 21.75C13.4688 21.7337 15.0695 21.5594 16.3425 21.2442C16.9767 21.0872 17.559 20.8881 18.026 20.6386C18.4685 20.4022 18.9334 20.0541 19.1326 19.5354L17.7323 18.9976C17.7337 18.9939 17.7215 19.0274 17.6526 19.0911C17.5839 19.1546 17.4765 19.2316 17.3192 19.3156C17.0023 19.4849 16.5506 19.6474 15.982 19.7882C14.8492 20.0686 13.3689 20.2346 11.8583 20.25L11.8736 21.75ZM10.3388 4.32484C10.7763 3.94141 11.3204 3.75 11.8659 3.75L11.8659 2.25C10.9687 2.24999 10.07 2.5658 9.35012 3.19682L10.3388 4.32484ZM11.8659 3.75C12.4114 3.75 12.9555 3.94142 13.393 4.32484L14.3817 3.19682C13.6618 2.56581 12.7632 2.25001 11.8659 2.25L11.8659 3.75ZM15.1683 8.61856L15.5716 7.00242L14.1163 6.63921L13.7129 8.25535L15.1683 8.61856Z" fill="currentColor"/>
</svg>
