<svg viewBox="0 0 25 24" fill="none" xmlns="http://www.w3.org/2000/svg">
<path d="M9.06351 8.61856C9.1638 9.02045 9.57091 9.26494 9.97279 9.16464C10.3747 9.06434 10.6192 8.65724 10.5189 8.25535L9.06351 8.61856ZM9.38785 6.82082L10.1155 6.63921L9.38785 6.82082ZM15.3439 6.82082L14.6163 6.63921V6.63921L15.3439 6.82082ZM14.3873 3.76083L13.893 4.32484L14.3873 3.76083ZM10.3445 3.76083L9.85012 3.19682V3.19682L10.3445 3.76083ZM6.06755 19.2665L5.3674 19.5354H5.3674L6.06755 19.2665ZM8.2565 8.28463L7.91477 7.617L7.81093 7.67015L7.72813 7.75234L8.2565 8.28463ZM18.9325 19.2665L19.6326 19.5354H19.6326L18.9325 19.2665ZM16.7435 8.28463L17.2719 7.75234L17.1891 7.67015L17.0852 7.617L16.7435 8.28463ZM12.3659 3L12.3659 3.75L12.3659 3ZM14.2129 8.25535C14.1126 8.65724 14.3571 9.06434 14.759 9.16464C15.1609 9.26494 15.568 9.02045 15.6683 8.61856L14.2129 8.25535ZM10.5189 8.25535L10.1155 6.63921L8.66017 7.00242L9.06351 8.61856L10.5189 8.25535ZM13.893 4.32484C14.548 4.89897 14.8276 5.79253 14.6163 6.63921L16.0716 7.00242C16.4189 5.61111 15.9598 4.14178 14.8817 3.19682L13.893 4.32484ZM10.1155 6.63921C9.90423 5.79253 10.1838 4.89897 10.8388 4.32484L9.85012 3.19682C8.77204 4.14178 8.31294 5.61111 8.66017 7.00242L10.1155 6.63921ZM6.7677 18.9976C6.20351 17.5285 6.09907 15.5709 6.46106 13.6536C6.82325 11.7351 7.63251 9.96077 8.78486 8.81691L7.72813 7.75234C6.29786 9.17207 5.3867 11.2587 4.9871 13.3753C4.58729 15.493 4.67969 17.7446 5.3674 19.5354L6.7677 18.9976ZM8.59823 8.95225C9.61324 8.43271 10.9015 7.85471 12.6143 7.89986L12.6538 6.40038C10.5587 6.34516 8.99608 7.06353 7.91477 7.617L8.59823 8.95225ZM12.6417 20.25C11.1311 20.2346 9.65075 20.0686 8.51799 19.7882C7.94936 19.6474 7.49767 19.4849 7.18083 19.3156C7.02354 19.2316 6.91606 19.1546 6.84739 19.0911C6.77846 19.0274 6.76627 18.9939 6.7677 18.9976L5.3674 19.5354C5.56661 20.0541 6.03145 20.4022 6.47398 20.6386C6.94099 20.8881 7.52331 21.0872 8.15753 21.2442C9.43048 21.5594 11.0312 21.7337 12.6264 21.75L12.6417 20.25ZM19.6326 19.5354C20.3203 17.7446 20.4127 15.493 20.0129 13.3753C19.6133 11.2587 18.7021 9.17207 17.2719 7.75234L16.2151 8.81691C17.3675 9.96077 18.1767 11.7351 18.5389 13.6536C18.9009 15.5709 18.7965 17.5285 18.2323 18.9976L19.6326 19.5354ZM17.0852 7.617C16.0039 7.06353 14.4413 6.34516 12.3462 6.40038L12.3857 7.89986C14.0985 7.85471 15.3868 8.43271 16.4018 8.95225L17.0852 7.617ZM12.3736 21.75C13.9688 21.7337 15.5695 21.5594 16.8425 21.2442C17.4767 21.0872 18.059 20.8881 18.526 20.6386C18.9685 20.4022 19.4334 20.0541 19.6326 19.5354L18.2323 18.9976C18.2337 18.9939 18.2215 19.0274 18.1526 19.0911C18.0839 19.1546 17.9765 19.2316 17.8192 19.3156C17.5023 19.4849 17.0506 19.6474 16.482 19.7882C15.3492 20.0686 13.8689 20.2346 12.3583 20.25L12.3736 21.75ZM10.8388 4.32484C11.2763 3.94141 11.8204 3.75 12.3659 3.75L12.3659 2.25C11.4687 2.24999 10.57 2.5658 9.85012 3.19682L10.8388 4.32484ZM12.3659 3.75C12.9114 3.75 13.4555 3.94142 13.893 4.32484L14.8817 3.19682C14.1618 2.56581 13.2632 2.25001 12.3659 2.25L12.3659 3.75ZM15.6683 8.61856L16.0716 7.00242L14.6163 6.63921L14.2129 8.25535L15.6683 8.61856Z" fill="currentColor"/>
</svg>
