<svg viewBox="0 0 24 24" fill="none" xmlns="http://www.w3.org/2000/svg">
<path d="M2.71422 8.37011H21.2858M2.15261 8.91521L11.4272 20.9448C11.4946 21.0326 11.5814 21.1038 11.6807 21.1528C11.78 21.2018 11.8893 21.2273 12 21.2273C12.1107 21.2273 12.22 21.2018 12.3193 21.1528C12.4186 21.1038 12.5054 21.0326 12.5728 20.9448L21.8474 8.91521C21.9386 8.79648 21.9915 8.6528 21.9991 8.50329C22.0066 8.35377 21.9685 8.20549 21.8898 8.07815L19.861 4.80328C19.1664 3.68213 17.9414 2.99999 16.6225 3L7.37746 3.00005C6.05863 3.00006 4.83361 3.68219 4.13905 4.80331L2.1102 8.07815C2.03148 8.20549 1.99337 8.35377 2.00095 8.50329C2.00852 8.6528 2.06142 8.79648 2.15261 8.91521ZM11.0477 19.6111L7.64268 9.5752C7.53886 9.26919 7.59728 8.93141 7.79786 8.67805L11.2109 4.36681C11.6053 3.86866 12.3676 3.889 12.7348 4.40746L15.778 8.70369C15.9481 8.94386 15.9976 9.2492 15.9121 9.53083L12.8609 19.5818C12.592 20.4676 11.3452 20.4878 11.0477 19.6111Z" stroke="currentColor" stroke-width="1.42858" stroke-linecap="round" stroke-linejoin="round"/>
</svg>
