<svg viewBox="0 0 24 24" fill="none" xmlns="http://www.w3.org/2000/svg">
<path fill-rule="evenodd" clip-rule="evenodd" d="M12.1652 5.81395C12.08 5.91643 11.92 5.91643 11.8348 5.81395C10.9096 4.70151 9.55664 4 8.04951 4C5.26074 4 3 6.40188 3 9.36476C3 11.9459 4.11824 14.0017 4.94784 15.2238C5.83667 16.5332 6.87291 17.5809 7.61229 18.2599C10.1389 20.58 13.8611 20.58 16.3877 18.2599C17.1271 17.5809 18.1633 16.5332 19.0522 15.2238C19.8818 14.0017 21 11.9459 21 9.36476C21 6.40188 18.7393 4 15.9505 4C14.4434 4 13.0904 4.70151 12.1652 5.81395Z" stroke="currentColor" stroke-width="1.5" stroke-linecap="round"/>
</svg>
