<svg viewBox="0 0 24 24" fill="none" xmlns="http://www.w3.org/2000/svg">
    <mask id="path-1-inside-1_171_2637" fill="white">
    <path d="M12 21C16.9706 21 21 16.9706 21 12C21 7.02944 16.9706 3 12 3C7.02944 3 3 7.02944 3 12C3 16.9706 7.02944 21 12 21Z"/>
    </mask>
    <path d="M11.25 15.6C11.25 16.0142 11.5858 16.35 12 16.35C12.4142 16.35 12.75 16.0142 12.75 15.6H11.25ZM12.75 12C12.75 11.5858 12.4142 11.25 12 11.25C11.5858 11.25 11.25 11.5858 11.25 12H12.75ZM12 7.65C11.5858 7.65 11.25 7.98579 11.25 8.4C11.25 8.81421 11.5858 9.15 12 9.15V7.65ZM12.009 9.15C12.4232 9.15 12.759 8.81421 12.759 8.4C12.759 7.98579 12.4232 7.65 12.009 7.65V9.15ZM12.75 15.6V12H11.25V15.6H12.75ZM12 9.15H12.009V7.65H12V9.15ZM19.5 12C19.5 16.1421 16.1421 19.5 12 19.5V22.5C17.799 22.5 22.5 17.799 22.5 12H19.5ZM12 19.5C7.85786 19.5 4.5 16.1421 4.5 12H1.5C1.5 17.799 6.20101 22.5 12 22.5V19.5ZM4.5 12C4.5 7.85786 7.85786 4.5 12 4.5V1.5C6.20101 1.5 1.5 6.20101 1.5 12H4.5ZM12 4.5C16.1421 4.5 19.5 7.85786 19.5 12H22.5C22.5 6.20101 17.799 1.5 12 1.5V4.5Z" fill="currentColor" mask="url(#path-1-inside-1_171_2637)"/>
</svg>