<svg viewBox="0 0 24 24" fill="none" xmlns="http://www.w3.org/2000/svg">
<path fill-rule="evenodd" clip-rule="evenodd" d="M9.86562 3.7947C10.5672 3.5172 11.4173 3.25 12 3.25C12.5827 3.25 13.4328 3.5172 14.1344 3.7947C14.3942 3.89748 14.5833 4.16739 14.5833 4.50754C14.5833 4.62734 14.5605 4.74605 14.516 4.85728L14.0224 6.09117C13.3764 5.9229 12.6987 5.83333 12 5.83333C11.3013 5.83333 10.6236 5.9229 9.97758 6.09117L9.48402 4.85728C9.43953 4.74605 9.41667 4.62734 9.41667 4.50754C9.41667 4.16739 9.60576 3.89748 9.86562 3.7947ZM8.56757 6.60503L8.09131 5.41437C7.97594 5.12595 7.91667 4.81817 7.91667 4.50754C7.91667 3.61375 8.42631 2.75091 9.31391 2.39984C10.017 2.12173 11.1039 1.75 12 1.75C12.8961 1.75 13.983 2.12173 14.6861 2.39984C15.5737 2.75091 16.0833 3.61375 16.0833 4.50754C16.0833 4.81817 16.0241 5.12595 15.9087 5.41437L15.4324 6.60503C18.1331 7.88978 20 10.6435 20 13.8333C20 18.2516 16.4183 21.8333 12 21.8333C7.58172 21.8333 4 18.2516 4 13.8333C4 10.6435 5.86685 7.88978 8.56757 6.60503ZM12 20.3333C8.41015 20.3333 5.5 17.4232 5.5 13.8333C5.5 10.2435 8.41015 7.33333 12 7.33333C15.5899 7.33333 18.5 10.2435 18.5 13.8333C18.5 17.4232 15.5899 20.3333 12 20.3333Z" fill="currentColor"/>
</svg>
