<svg viewBox="0 0 24 24" fill="none" xmlns="http://www.w3.org/2000/svg">
<path d="M19.5003 20.7379L20.0355 20.2125L20.0293 20.2062L20.0229 20.2L19.5003 20.7379ZM16.4544 16.7329C16.1574 16.4443 15.6825 16.4511 15.3939 16.7482C15.1052 17.0453 15.1121 17.5201 15.4092 17.8088L16.4544 16.7329ZM10.9065 18.3565C6.96702 18.3565 3.75 15.0998 3.75 11.0532H2.25C2.25 15.9021 6.11271 19.8565 10.9065 19.8565V18.3565ZM18.063 11.0532C18.063 15.0998 14.846 18.3565 10.9065 18.3565V19.8565C15.7003 19.8565 19.563 15.9021 19.563 11.0532H18.063ZM10.9065 3.75C14.846 3.75 18.063 7.00671 18.063 11.0532H19.563C19.563 6.20441 15.7003 2.25 10.9065 2.25V3.75ZM10.9065 2.25C6.11271 2.25 2.25 6.20441 2.25 11.0532H3.75C3.75 7.00671 6.96702 3.75 10.9065 3.75V2.25ZM20.2075 20.2125C20.1584 20.2625 20.0846 20.2625 20.0355 20.2125L18.9651 21.2633C19.6022 21.9122 20.6408 21.9122 21.2779 21.2633L20.2075 20.2125ZM21.2779 21.2633C21.9074 20.6222 21.9074 19.5882 21.2779 18.947L20.2075 19.9979C20.2642 20.0556 20.2642 20.1548 20.2075 20.2125L21.2779 21.2633ZM20.0229 20.2L16.4544 16.7329L15.4092 17.8088L18.9777 21.2758L20.0229 20.2ZM16.4803 16.2016L20.2075 19.9979L21.2779 18.947L17.5507 15.1507L16.4803 16.2016Z" fill="currentColor"/>
</svg>
