<svg viewBox="0 0 24 24" fill="none" xmlns="http://www.w3.org/2000/svg">
    <mask id="path-1-inside-1_46_245" fill="white">
    <path d="M8.53333 7.06452C8.53333 4.81975 10.3093 3 12.5 3C14.6907 3 16.4667 4.81975 16.4667 7.06452C16.4667 9.30929 14.6907 11.129 12.5 11.129C10.3093 11.129 8.53333 9.30929 8.53333 7.06452Z"/>
    <path d="M12.5 12.2903C6.06858 12.2907 4 16.9261 4 18.0921C4 19.2581 4 21 12.5 21C21 21 21 19.2581 21 18.0921C21 16.9355 18.875 12.29 12.5 12.2903Z"/>
    </mask>
    <path d="M12.5 12.2903L12.4999 10.7903L12.5 12.2903ZM12.5 9.62903C11.1719 9.62903 10.0333 8.51553 10.0333 7.06452H7.03333C7.03333 10.103 9.4466 12.629 12.5 12.629V9.62903ZM14.9667 7.06452C14.9667 8.51553 13.8281 9.62903 12.5 9.62903V12.629C15.5534 12.629 17.9667 10.103 17.9667 7.06452H14.9667ZM12.5 4.5C13.8281 4.5 14.9667 5.61351 14.9667 7.06452H17.9667C17.9667 4.02599 15.5534 1.5 12.5 1.5V4.5ZM12.5 1.5C9.4466 1.5 7.03333 4.02599 7.03333 7.06452H10.0333C10.0333 5.61351 11.1719 4.5 12.5 4.5V1.5ZM5.5 18.0921C5.5 18.1277 5.52232 17.8587 5.76968 17.3558C5.99464 16.8985 6.35807 16.3489 6.89223 15.8214C7.93482 14.7917 9.68207 13.7905 12.5001 13.7903L12.4999 10.7903C8.88652 10.7905 6.38376 12.1072 4.78421 13.6868C3.9973 14.464 3.44161 15.2919 3.07773 16.0316C2.73625 16.7258 2.5 17.4735 2.5 18.0921H5.5ZM12.5001 13.7903C15.2855 13.7902 17.0352 14.7908 18.0889 15.8269C18.6282 16.3572 18.9974 16.9093 19.2265 17.3679C19.4798 17.875 19.5 18.1384 19.5 18.0921H22.5C22.5 17.4675 22.2546 16.7164 21.9102 16.0272C21.5417 15.2895 20.9811 14.4634 20.1923 13.6878C18.5898 12.1121 16.0895 10.7901 12.4999 10.7903L12.5001 13.7903ZM19.5 18.0921C19.5 18.4123 19.4849 18.4556 19.4773 18.4743C19.4772 18.4745 19.4773 18.4745 19.4765 18.4758C19.4756 18.477 19.4709 18.4843 19.4587 18.4974C19.4345 18.5231 19.3677 18.5852 19.2176 18.6673C18.5208 19.0485 16.7436 19.5 12.5 19.5V22.5C16.7564 22.5 19.2292 22.0805 20.6574 21.2992C21.4408 20.8707 21.9739 20.3002 22.2571 19.6024C22.5151 18.9666 22.5 18.3549 22.5 18.0921H19.5ZM12.5 19.5C8.25639 19.5 6.47921 19.0485 5.78239 18.6673C5.63228 18.5852 5.56554 18.5231 5.54134 18.4974C5.52907 18.4843 5.52435 18.477 5.52354 18.4758C5.52275 18.4745 5.52282 18.4745 5.52272 18.4743C5.51513 18.4556 5.5 18.4123 5.5 18.0921H2.5C2.5 18.3549 2.48487 18.9666 2.7429 19.6024C3.02607 20.3002 3.55915 20.8707 4.34261 21.2993C5.77079 22.0805 8.24361 22.5 12.5 22.5V19.5Z" fill="currentColor" mask="url(#path-1-inside-1_46_245)"/>
</svg>
