<svg viewBox="0 0 24 24" fill="none" xmlns="http://www.w3.org/2000/svg">
<path d="M15.5 12C15.5 11.6022 15.658 11.2206 15.9393 10.9393C16.2206 10.658 16.6022 10.5 17 10.5C17.3978 10.5 17.7794 10.658 18.0607 10.9393C18.342 11.2206 18.5 11.6022 18.5 12C18.5 12.3978 18.342 12.7794 18.0607 13.0607C17.7794 13.342 17.3978 13.5 17 13.5C16.6022 13.5 16.2206 13.342 15.9393 13.0607C15.658 12.7794 15.5 12.3978 15.5 12Z" fill="currentColor"/>
<path fill-rule="evenodd" clip-rule="evenodd" d="M20.4406 6.67379C20.1117 5.90126 19.5822 5.2307 18.9071 4.73154C18.2319 4.23238 17.4356 3.92278 16.6006 3.83479L15.9486 3.76679C12.6564 3.42033 9.33572 3.44313 6.04857 3.83479L5.61657 3.88579C4.80502 3.98215 4.04863 4.3459 3.46668 4.9197C2.88474 5.49349 2.51036 6.24468 2.40257 7.05479C1.96477 10.3369 1.96477 13.6627 2.40257 16.9448C2.51036 17.7549 2.88474 18.5061 3.46668 19.0799C4.04863 19.6537 4.80502 20.0174 5.61657 20.1138L6.04857 20.1648C9.33557 20.5568 12.6556 20.5798 15.9486 20.2328L16.6006 20.1648C17.4356 20.0768 18.2319 19.7672 18.9071 19.268C19.5822 18.7689 20.1117 18.0983 20.4406 17.3258C20.9588 17.1722 21.4208 16.8703 21.7697 16.4574C22.1185 16.0444 22.3388 15.5385 22.4036 15.0018C22.6366 13.0078 22.6366 10.9918 22.4036 8.9978C22.3388 8.46114 22.1185 7.95516 21.7697 7.54221C21.4208 7.12925 20.9588 6.82738 20.4406 6.67379ZM15.7906 5.25779C12.6097 4.92401 9.40153 4.94614 6.22557 5.32379L5.79357 5.37579C5.31285 5.43285 4.86479 5.64829 4.52004 5.98814C4.1753 6.328 3.95348 6.77293 3.88957 7.25279C3.47045 10.4036 3.47045 13.596 3.88957 16.7468C3.95348 17.2267 4.1753 17.6716 4.52004 18.0114C4.86479 18.3513 5.31285 18.5667 5.79357 18.6238L6.22557 18.6758C9.40157 19.0538 12.6106 19.0758 15.7916 18.7418L16.4436 18.6728C17.2718 18.5865 18.0337 18.1808 18.5676 17.5418C17.0583 17.6292 15.5443 17.5898 14.0416 17.4238C13.4204 17.3552 12.8407 17.0786 12.3967 16.6389C11.9526 16.1992 11.6703 15.6222 11.5956 15.0018C11.3637 13.0072 11.3637 10.9924 11.5956 8.9978C11.6703 8.37736 11.9526 7.80043 12.3967 7.36073C12.8407 6.92103 13.4204 6.64441 14.0416 6.5758C15.5443 6.40982 17.0583 6.37034 18.5676 6.4578C18.0337 5.81881 17.2718 5.4131 16.4436 5.3268L15.7906 5.25779ZM19.2766 8.0148L19.2786 8.02579L19.2846 8.06579L19.4836 8.0338C19.5862 8.0438 19.6889 8.0548 19.7916 8.0668C20.3786 8.1318 20.8466 8.5968 20.9136 9.17179C21.1336 11.0508 21.1336 12.9488 20.9136 14.8278C20.8781 15.1114 20.7481 15.3747 20.5445 15.5752C20.3409 15.7757 20.0756 15.9017 19.7916 15.9328C19.6889 15.9448 19.5862 15.9558 19.4836 15.9658L19.2846 15.9348L19.2786 15.9738L19.2766 15.9848C17.5986 16.1368 15.8766 16.1198 14.2076 15.9328C13.9235 15.9017 13.6582 15.7757 13.4546 15.5752C13.251 15.3747 13.121 15.1114 13.0856 14.8278C12.8654 12.9489 12.8654 11.0507 13.0856 9.17179C13.121 8.88824 13.251 8.62491 13.4546 8.4244C13.6582 8.22388 13.9235 8.09789 14.2076 8.0668C15.8916 7.88041 17.5891 7.86299 19.2766 8.0148Z" fill="currentColor"/>
</svg>
